# xmcd
#
# Track frame offsets:
#	150
#	17205
#	41980
#	59305
#	77745
#	93158
#	112229
#	127512
#	150697
#
# Disc length: 2267 seconds
# Revision: 0
# Processed by: cddbd v1.5.2PL0 Copyright (c) Steve Scherf et al.
# Submitted via: dBpowerAMP V12.0
#
DISCID=6c08d909
DTITLE=Kara Clark - Sinnin'
DYEAR=2009
DGENRE=Country/Rock
TTITLE0=Living Proof
TTITLE1=Preacher's Hands
TTITLE2=Sinnin'
TTITLE3=Lie
TTITLE4=The Highway
TTITLE5=I Don't Drink Anymore
TTITLE6=Murder Or Suicide
TTITLE7=Favorite Child
TTITLE8=The Band, Bartender, And Me
EXTD=
EXTT0=
EXTT1=
EXTT2=
EXTT3=
EXTT4=
EXTT5=
EXTT6=
EXTT7=
EXTT8=
PLAYORDER=
